<?xml version="1.0" standalone="no"?>
<!DOCTYPE svg PUBLIC "-//W3C//DTD SVG 20010904//EN"
 "http://www.w3.org/TR/2001/REC-SVG-20010904/DTD/svg10.dtd">
<svg version="1.0" xmlns="http://www.w3.org/2000/svg"
 width="500.000000pt" height="500.000000pt" viewBox="0 0 500.000000 500.000000"
 preserveAspectRatio="xMidYMid meet">
<metadata>
Created by potrace 1.11, written by Peter Selinger 2001-2013
</metadata>
<g transform="translate(0.000000,500.000000) scale(0.100000,-0.100000)"
fill="#000000" stroke="none">
<path d="M4690 4986 c0 -10 9 -13 30 -11 36 5 39 -2 8 -15 -22 -9 -22 -9 3 -9
23 -1 27 -6 31 -37 2 -20 0 -37 -6 -39 -6 -2 -60 -9 -121 -15 -60 -7 -135 -15
-165 -19 l-55 -6 -1 -73 -2 -72 67 7 c36 5 96 8 133 8 56 0 70 -4 92 -24 14
-13 32 -21 40 -18 17 7 21 -4 25 -59 l2 -42 -48 -6 c-26 -3 -102 -11 -168 -17
-66 -6 -122 -12 -125 -14 -3 -2 -3 -35 -2 -75 l4 -71 88 7 c131 10 199 10 193
0 -3 -4 3 -5 14 -2 17 5 20 2 19 -16 0 -14 4 -22 12 -20 6 1 12 1 12 0 1 -2 3
-20 6 -40 l6 -38 -39 -1 c-21 -1 -96 -6 -168 -13 l-130 -11 -3 -73 -3 -72 118
5 c64 3 121 5 125 5 4 0 8 32 8 70 l0 70 63 1 c34 1 73 3 87 4 14 1 48 3 77 4
83 2 83 0 83 403 l0 338 -155 0 c-128 0 -155 -3 -155 -14z m167 -242 c-3 -3
-12 -4 -19 -1 -8 3 -5 6 6 6 11 1 17 -2 13 -5z m-90 -366 c-3 -8 -6 -5 -6 6
-1 11 2 17 5 13 3 -3 4 -12 1 -19z"/>
<path d="M2422 4728 c-16 -17 -34 -23 -67 -23 -25 0 -45 -3 -45 -7 0 -5 -7 -8
-17 -8 -22 0 -123 -48 -123 -59 0 -5 -16 -16 -35 -25 -19 -9 -47 -28 -61 -41
-15 -14 -31 -25 -36 -25 -5 0 -6 -4 -3 -10 3 -5 -1 -10 -9 -10 -8 0 -24 -13
-36 -30 -12 -16 -19 -30 -15 -30 3 0 -5 -15 -19 -32 -22 -30 -25 -46 -30 -153
-9 -190 -7 -295 6 -367 11 -69 27 -91 29 -40 l0 27 10 -25 c7 -17 7 -32 0 -48
-6 -13 -10 -40 -10 -60 l1 -37 7 37 c9 45 36 88 56 88 8 0 15 -4 15 -10 0 -5
9 -34 21 -65 15 -41 28 -59 47 -67 57 -22 71 -31 65 -41 -3 -5 3 -4 14 1 15 9
20 8 20 -4 0 -7 -5 -14 -10 -14 -5 0 -7 -6 -4 -13 3 -7 -3 -19 -14 -25 -10 -7
-16 -18 -13 -26 3 -7 -2 -16 -10 -19 -10 -4 -13 -13 -9 -23 4 -12 3 -15 -5
-10 -15 9 -21 -6 -25 -57 -3 -28 -10 -41 -27 -50 -12 -7 -27 -22 -31 -34 -7
-18 -4 -23 20 -28 24 -5 27 -10 26 -38 -1 -17 4 -38 12 -45 8 -8 11 -23 7 -34
-4 -13 -2 -18 4 -14 5 3 12 0 15 -8 4 -10 0 -12 -14 -9 -10 3 -19 0 -19 -6 0
-6 7 -11 16 -11 11 0 15 -8 14 -27 -3 -42 -1 -50 9 -34 7 11 11 4 17 -25 4
-21 7 -45 5 -53 -2 -9 4 -12 18 -8 12 3 21 1 21 -4 0 -5 -7 -9 -15 -9 -8 0
-15 -4 -15 -9 0 -12 29 -23 41 -15 16 10 9 -6 -13 -28 -16 -16 -20 -17 -15 -5
4 12 -2 22 -21 34 -15 10 -32 25 -39 33 -11 13 -12 13 -13 0 0 -8 12 -25 28
-38 l27 -23 -27 4 c-16 2 -28 0 -28 -4 0 -5 -6 -6 -13 -3 -7 2 -13 -4 -14 -16
-1 -11 2 -20 6 -20 4 0 24 -16 45 -35 21 -19 42 -35 47 -35 5 0 9 -5 9 -12 0
-6 -7 -4 -18 5 -39 35 -44 15 -6 -23 52 -54 129 -105 181 -120 60 -18 86 -45
72 -72 -9 -17 -13 -18 -20 -7 -7 11 -9 10 -9 -3 0 -10 -5 -18 -11 -18 -5 0 -7
6 -3 13 5 9 4 9 -6 0 -15 -13 -5 -33 17 -33 9 0 13 -6 9 -15 -3 -8 -1 -14 3
-12 5 1 19 -9 32 -23 13 -14 32 -24 42 -22 9 2 17 0 17 -5 0 -4 12 -9 28 -10
15 -1 39 -3 54 -6 15 -2 25 -1 23 3 -3 4 7 8 20 8 28 -1 41 -13 25 -23 -5 -3
-10 -11 -10 -16 0 -6 5 -7 10 -4 6 4 17 1 25 -5 8 -7 24 -10 36 -7 17 4 18 3
8 -9 -21 -26 0 -28 28 -3 18 15 22 17 11 4 -14 -17 -15 -22 -2 -39 8 -11 14
-31 14 -45 0 -14 9 -41 21 -60 22 -37 15 -50 -26 -51 -76 -1 -318 -175 -370
-265 -15 -28 -15 -29 0 -8 10 13 23 23 29 23 7 0 27 16 45 37 30 33 33 35 48
20 15 -15 18 -14 39 8 12 13 25 21 28 18 3 -3 12 0 21 7 13 11 14 10 9 -4 -3
-9 -2 -16 3 -16 14 0 43 34 43 51 0 8 11 23 25 33 13 10 22 22 19 27 -3 5 3 6
12 2 10 -4 15 -2 11 3 -7 13 10 41 19 31 8 -8 -50 -180 -100 -297 -21 -47 -58
-134 -82 -195 -25 -60 -50 -112 -55 -113 -5 -2 -7 -7 -4 -12 3 -5 -2 -16 -11
-24 -11 -12 -35 -16 -91 -16 l-75 0 23 19 c28 22 23 31 -20 36 -27 4 -31 1
-31 -20 0 -13 6 -26 13 -28 6 -3 -7 -6 -30 -6 -34 -1 -41 2 -37 14 4 10 0 15
-14 15 -24 0 -38 -16 -20 -23 22 -8 -31 -15 -242 -31 -113 -9 -216 -18 -230
-21 -14 -3 -70 -8 -126 -12 l-101 -6 10 64 c7 52 6 71 -8 102 -13 33 -18 37
-31 26 -8 -7 -14 -8 -13 -3 1 5 1 23 0 41 -1 27 -4 30 -23 25 -17 -4 -20 -2
-15 11 3 9 2 19 -3 22 -6 4 -10 24 -10 45 0 21 -4 42 -10 45 -5 3 -10 1 -10
-4 0 -6 -6 -11 -14 -11 -9 0 -17 16 -21 43 -4 23 -12 50 -17 60 -5 10 -12 45
-16 78 -4 33 -10 58 -15 57 -4 -2 -16 11 -26 28 -20 32 -68 84 -78 84 -3 0 2
-9 12 -20 10 -11 16 -22 14 -24 -2 -2 -22 16 -43 41 -36 42 -38 47 -22 58 18
14 59 9 50 -6 -3 -5 1 -12 10 -15 8 -3 20 -18 26 -32 6 -15 20 -43 31 -62 14
-26 19 -30 19 -15 0 11 -19 49 -41 84 -36 58 -39 66 -25 77 9 6 16 16 16 23 0
6 4 11 10 11 5 0 17 -26 25 -57 9 -32 18 -62 20 -68 7 -20 4 31 -4 72 -10 51
0 73 23 54 14 -12 16 -10 16 13 0 29 20 35 39 12 9 -11 9 -15 -1 -20 -7 -3 -4
-4 7 -1 56 12 147 23 159 19 8 -3 16 5 20 20 12 50 24 25 20 -44 -3 -61 -1
-72 17 -89 22 -21 51 -18 43 4 -3 7 1 15 9 18 11 4 14 -1 11 -16 -6 -36 24 65
32 108 7 36 9 30 16 -55 11 -125 13 -129 40 -94 13 16 25 30 28 32 3 1 3 34 0
73 -3 39 -2 73 2 75 7 4 10 -10 29 -116 6 -36 19 -84 30 -107 10 -23 19 -52
19 -64 0 -21 2 -20 30 9 34 36 39 66 13 81 -16 9 -16 11 2 31 11 12 29 40 41
63 11 23 25 42 31 42 6 0 15 4 20 9 5 5 3 6 -4 2 -7 -4 -13 -2 -13 4 0 8 7 9
18 5 9 -4 29 -11 44 -15 26 -8 119 -71 226 -152 24 -18 63 -54 88 -80 l44 -48
20 33 c22 35 26 52 10 42 -5 -3 -34 11 -65 31 -45 30 -53 39 -43 51 10 12 6
20 -23 45 -21 19 -29 32 -21 35 21 8 14 23 -39 76 -28 29 -63 68 -78 87 -14
19 -49 60 -78 90 -75 77 -107 146 -107 229 -1 51 4 75 22 104 17 29 22 54 22
103 l0 65 -37 -7 c-103 -17 -245 -125 -305 -230 l-29 -52 -114 -41 c-63 -22
-186 -61 -273 -86 -86 -25 -190 -61 -230 -81 -120 -59 -251 -198 -278 -297 -6
-23 -23 -82 -37 -130 -30 -98 -54 -215 -67 -327 -12 -96 -27 -144 -63 -197
-22 -34 -28 -52 -26 -90 3 -56 -22 -144 -59 -210 -23 -42 -26 -57 -25 -138 1
-49 6 -101 11 -114 9 -24 9 -24 16 9 8 42 30 67 75 86 36 15 117 18 172 7 l34
-7 -30 -12 c-18 -8 -23 -13 -12 -14 17 0 25 -30 8 -30 -5 0 -14 -14 -20 -30
-5 -17 -6 -28 -2 -25 10 6 23 -23 16 -35 -3 -5 11 -7 31 -5 29 3 34 0 29 -13
-3 -9 -3 -13 1 -9 4 4 14 1 22 -6 13 -10 15 -9 10 3 -4 11 3 15 28 16 19 0 34
-3 34 -8 0 -4 4 -8 10 -8 5 0 7 7 4 15 -7 17 11 21 21 5 4 -6 11 -8 16 -4 5 3
6 10 3 16 -4 6 -1 8 7 6 8 -3 13 -11 11 -18 -2 -7 7 -24 20 -37 23 -24 23 -25
4 -39 -11 -8 -28 -12 -38 -8 -13 4 -16 1 -12 -11 5 -13 1 -15 -21 -11 -27 5
-27 5 -9 -15 16 -18 16 -19 1 -13 -10 4 -17 1 -17 -6 0 -7 -7 -10 -15 -6 -8 3
-14 2 -12 -2 3 -11 -55 -68 -66 -64 -5 1 -6 -2 -2 -8 3 -5 1 -10 -5 -10 -6 0
-9 -4 -6 -9 3 -4 -4 -17 -16 -27 -12 -11 -18 -13 -14 -6 4 7 1 12 -8 12 -12 0
-12 -5 -3 -30 11 -29 13 -30 67 -27 30 1 61 6 68 10 6 5 17 5 22 2 6 -3 10 1
10 11 0 15 2 15 25 0 22 -14 25 -14 25 -2 0 10 6 13 15 10 17 -7 20 -31 4 -36
-5 -2 -11 -19 -11 -38 -1 -40 -16 -54 -37 -37 -12 10 -14 9 -8 -5 7 -21 -13
-38 -56 -48 -17 -4 -31 -12 -30 -18 2 -6 -3 -9 -11 -6 -7 3 -28 -11 -47 -30
-35 -38 -55 -47 -45 -20 5 13 2 15 -15 11 -15 -4 -19 -2 -15 9 4 9 -2 14 -16
14 -17 0 -19 -3 -10 -12 15 -15 16 -38 1 -38 -5 0 -7 6 -3 12 5 10 4 10 -6 1
-10 -9 -10 -15 -1 -26 9 -12 8 -16 -4 -21 -9 -3 -14 -10 -11 -15 4 -5 0 -11
-6 -14 -33 -11 58 -135 124 -168 42 -22 42 -22 -8 -96 -13 -20 -24 -44 -24
-54 0 -13 -7 -19 -24 -19 -22 0 -56 -32 -56 -52 0 -5 48 -8 108 -8 97 1 105 2
87 16 -11 8 -37 17 -58 21 -36 5 -38 8 -32 32 9 37 12 38 44 7 l28 -27 5 48
c3 26 11 61 17 77 11 28 12 29 72 22 34 -3 122 -22 198 -42 82 -23 165 -38
211 -40 l75 -3 3 -56 c3 -46 6 -55 22 -55 14 0 21 10 26 35 6 34 7 35 25 19
10 -9 21 -25 24 -35 6 -18 44 -19 1221 -19 l1214 0 34 53 c31 46 75 150 183
432 17 44 52 145 77 225 26 80 52 154 58 165 6 11 15 38 19 60 4 22 12 57 17
78 6 20 7 52 3 70 -4 17 -3 65 2 105 8 60 7 84 -7 132 -9 33 -16 87 -16 119 0
33 -7 82 -16 108 -10 29 -16 74 -15 116 1 45 -6 97 -23 160 -13 50 -30 126
-37 167 -19 120 -65 257 -104 310 -54 74 -173 180 -262 233 -44 26 -131 70
-194 98 -63 28 -159 71 -214 96 -55 25 -119 51 -142 57 -23 7 -71 34 -106 60
-52 39 -69 59 -87 103 -13 32 -36 65 -56 81 -38 30 -42 56 -20 120 24 67 67
323 67 395 0 15 4 40 10 55 11 28 24 182 22 261 0 28 -7 49 -16 56 -8 6 -15
22 -15 35 1 14 -2 68 -6 120 -14 188 -45 336 -75 355 -6 3 -11 11 -11 16 0 6
5 7 10 4 22 -13 8 12 -21 39 -22 21 -29 36 -26 52 4 23 -10 36 -43 39 -8 1
-20 3 -27 4 -7 0 -10 8 -6 18 4 10 2 14 -4 10 -6 -4 -16 0 -23 8 -6 7 -17 12
-24 9 -6 -2 -22 6 -35 20 -13 13 -29 22 -35 20 -7 -3 -29 2 -50 11 -45 19
-123 35 -195 39 -29 2 -56 8 -60 14 -14 23 -56 23 -79 0z m-22 -285 c0 18 20
25 20 6 0 -6 7 -8 16 -5 9 3 12 2 9 -4 -4 -7 3 -9 19 -6 30 5 46 -13 22 -26
-9 -5 -14 -13 -11 -18 3 -5 1 -11 -5 -15 -5 -3 -10 -1 -10 6 0 10 -3 10 -12 1
-8 -8 -8 -15 2 -27 10 -13 9 -15 -9 -15 -11 0 -20 -6 -18 -12 1 -7 -3 -12 -9
-11 -6 1 -11 -5 -11 -13 0 -21 15 -17 27 7 14 25 21 21 13 -9 -3 -12 -9 -19
-14 -16 -5 3 -9 0 -9 -7 0 -8 -6 -6 -18 4 -10 10 -22 14 -25 10 -12 -11 -8
-23 7 -23 8 0 18 -5 21 -10 4 -7 -3 -9 -20 -6 -23 4 -26 2 -22 -14 3 -13 1
-17 -9 -13 -9 3 -12 13 -9 27 6 21 6 21 -9 2 -9 -11 -13 -22 -8 -25 7 -6 14
-28 15 -48 0 -7 9 -13 19 -13 21 0 24 -15 6 -24 -7 -3 -2 -3 10 0 22 5 23 4
12 -16 -7 -12 -8 -20 -2 -16 5 3 12 -6 15 -19 2 -14 0 -28 -4 -31 -5 -3 -9 0
-9 7 0 7 -9 5 -26 -5 -14 -10 -31 -15 -37 -13 -7 2 -20 0 -30 -5 -10 -5 -37
-10 -60 -10 -44 0 -104 -25 -126 -52 -8 -9 -19 -16 -25 -16 -35 0 -86 -23 -86
-38 -1 -16 -1 -16 -11 0 -9 17 -5 135 5 145 3 3 0 16 -5 30 -5 14 -6 30 -2 36
4 7 8 37 8 67 1 41 8 67 29 102 35 61 79 98 106 91 11 -3 27 0 35 7 16 14 84
16 94 4 11 -15 35 -9 75 18 37 25 40 26 52 10 13 -16 13 -16 14 1z m-245 -23
c-3 -5 -11 -10 -16 -10 -6 0 -7 5 -4 10 3 6 11 10 16 10 6 0 7 -4 4 -10z m315
-120 c0 -5 -4 -10 -10 -10 -5 0 -10 5 -10 10 0 6 5 10 10 10 6 0 10 -4 10 -10z
m-240 -354 c0 -2 -19 -15 -42 -28 -48 -26 -108 -28 -87 -2 6 8 20 14 31 14 10
0 16 5 13 10 -4 6 12 10 39 10 25 0 46 -2 46 -4z m-19 -51 c-42 -19 -50 -19
-25 0 10 8 28 14 39 14 14 0 10 -4 -14 -14z m247 -27 c-2 -6 -10 -14 -16 -16
-7 -2 -10 2 -6 12 7 18 28 22 22 4z m71 -20 c0 -18 2 -43 5 -55 2 -13 0 -25
-5 -28 -5 -4 -7 -11 -3 -16 3 -5 0 -16 -6 -24 -6 -8 -11 -27 -10 -42 4 -54 -8
-71 -48 -70 -21 0 -47 -3 -59 -8 -18 -6 -25 -2 -34 19 -11 23 -9 28 18 53 29
28 93 116 93 128 0 15 33 75 41 75 5 0 8 -15 8 -32z m-361 -34 c30 -6 28 -22
-3 -19 -19 3 -25 -1 -25 -16 0 -10 4 -19 9 -19 5 0 11 -9 14 -20 6 -23 -20
-28 -53 -10 -16 9 -40 64 -40 93 0 7 36 4 98 -9z m252 -69 c-7 -8 -16 -15 -21
-15 -5 0 -1 9 8 20 9 11 19 17 21 15 3 -3 -1 -11 -8 -20z m27 -183 c7 -4 -7
-9 -32 -10 -25 -1 -45 3 -45 8 0 12 60 13 77 2z m-22 -91 c-2 -5 -21 -12 -41
-15 -19 -4 -43 -10 -51 -13 -11 -4 -14 -2 -9 5 4 7 16 12 27 12 10 0 19 3 19
8 0 4 14 8 30 9 17 1 28 -2 25 -6z m-325 -77 c0 -8 -4 -14 -10 -14 -5 0 -10 9
-10 21 0 11 5 17 10 14 6 -3 10 -13 10 -21z m457 13 c18 0 34 -6 37 -13 6 -16
-51 -29 -97 -22 -44 7 -61 0 -46 -18 8 -9 8 -14 1 -14 -13 0 -42 39 -42 57 0
14 31 20 80 15 19 -2 49 -4 67 -5z m-214 -67 c49 -33 66 -38 47 -15 -10 12 -9
15 6 15 11 0 26 -5 34 -10 12 -8 12 -12 2 -18 -10 -7 -10 -11 2 -21 11 -9 14
-25 11 -52 -5 -37 -4 -38 33 -50 32 -9 38 -15 35 -33 -3 -16 -11 -21 -36 -20
-18 0 -38 -4 -45 -9 -7 -6 -15 -7 -19 -3 -3 3 -1 6 5 6 7 0 12 5 12 11 0 8 -4
8 -14 -1 -8 -6 -12 -18 -9 -26 3 -8 0 -14 -6 -14 -6 0 -11 6 -11 14 0 9 -7 12
-20 9 -14 -4 -21 1 -26 21 -3 14 -11 23 -16 20 -5 -4 -7 -15 -5 -26 4 -14 2
-18 -10 -14 -8 3 -20 6 -26 6 -7 0 -6 5 3 11 11 8 12 12 3 16 -10 3 -9 8 2 20
10 10 13 22 8 37 -4 11 -6 32 -6 46 1 14 -2 30 -7 35 -13 17 -22 67 -10 60 5
-3 10 -1 10 4 0 16 4 14 53 -19z m-83 -176 c0 -8 -4 -12 -10 -9 -5 3 -10 10
-10 16 0 5 5 9 10 9 6 0 10 -7 10 -16z m65 -64 c3 -6 -1 -7 -9 -4 -18 7 -21
14 -7 14 6 0 13 -4 16 -10z m50 0 c-3 -5 -12 -10 -18 -10 -7 0 -6 4 3 10 19
12 23 12 15 0z m-120 -131 c11 -17 -1 -21 -15 -4 -8 9 -8 15 -2 15 6 0 14 -5
17 -11z m-94 -18 c-6 -10 -8 -21 -6 -25 3 -3 2 -3 -2 0 -5 3 -8 11 -8 17 0 7
-9 11 -19 9 -11 -2 -15 1 -11 7 3 6 17 11 31 11 21 0 23 -3 15 -19z m768 -372
c-13 -10 -26 -15 -29 -12 -3 3 5 12 18 20 12 9 23 25 23 37 2 18 2 18 6 -3 4
-17 -2 -30 -18 -42z m-19 -90 c0 -6 -4 -7 -10 -4 -5 3 -10 11 -10 16 0 6 5 7
10 4 6 -3 10 -11 10 -16z m14 -34 c3 -8 1 -15 -4 -15 -6 0 -10 7 -10 15 0 8 2
15 4 15 2 0 6 -7 10 -15z m374 -38 c2 -15 9 -27 15 -27 7 0 22 -3 33 -6 16 -4
23 0 27 16 l6 22 30 -21 c22 -16 54 -24 132 -31 56 -5 112 -7 125 -4 17 4 26
1 30 -10 10 -26 43 -40 60 -26 7 7 21 9 30 6 13 -5 15 -14 10 -44 l-7 -37 25
30 c24 28 27 29 40 12 12 -16 11 -21 -7 -41 -48 -49 -79 -89 -109 -139 -17
-28 -36 -56 -43 -62 -6 -5 -26 -50 -43 -100 -26 -77 -30 -83 -26 -45 2 25 7
57 10 72 3 14 1 29 -5 32 -6 4 -13 -6 -17 -21 -21 -92 -56 -221 -65 -236 -6
-11 -8 -21 -5 -24 3 -3 1 -14 -5 -25 -20 -37 -20 -10 1 92 11 56 19 104 17
107 -3 2 -8 -11 -12 -29 l-8 -33 -8 30 c-6 22 -7 17 -4 -22 3 -30 0 -53 -5
-53 -6 0 -10 6 -10 14 0 8 -4 18 -10 21 -16 10 -11 -22 6 -39 8 -9 14 -16 12
-17 -2 -1 -17 -2 -35 -4 -27 -2 -33 2 -42 26 -8 23 -7 29 5 29 7 0 14 -9 14
-20 0 -11 4 -20 9 -20 14 0 10 49 -6 62 -11 9 -16 9 -23 -1 -5 -10 -9 -10 -15
-2 -10 17 3 44 16 35 8 -4 9 -3 5 5 -4 6 -12 9 -17 6 -5 -4 -9 2 -10 12 -1 10
-5 2 -10 -17 -8 -35 -6 -64 11 -150 5 -25 12 -63 15 -85 4 -34 3 -37 -7 -20
-7 11 -18 36 -24 55 -7 19 -18 34 -24 32 -7 -1 -19 3 -28 10 -14 11 -15 10 -8
-7 5 -11 12 -37 17 -59 6 -21 14 -47 20 -57 5 -11 6 -19 1 -19 -11 0 -27 31
-47 93 -8 26 -26 69 -40 95 -25 46 -25 46 -19 12 4 -19 11 -46 17 -60 12 -30
17 -47 22 -82 3 -14 6 -32 7 -40 4 -17 2 -17 -132 14 -63 14 -153 31 -200 38
-78 11 -103 13 -197 18 l-32 2 15 38 c64 158 276 552 297 552 16 0 47 52 47
79 0 22 16 30 18 9 1 -7 5 -29 9 -48 l9 -34 13 31 c7 17 10 41 6 52 -4 13 -2
21 5 21 6 0 9 4 5 9 -3 5 -1 12 4 15 5 4 12 2 16 -4 11 -18 30 -10 48 21 20
36 41 34 45 -4z m592 -155 c0 -5 -14 -21 -30 -37 -17 -16 -55 -67 -86 -112
-31 -46 -59 -82 -61 -79 -3 3 4 17 14 33 11 15 26 43 34 61 8 17 17 32 21 32
4 0 19 17 32 38 37 59 76 92 76 64z m-1330 -142 c0 -5 -8 -10 -17 -11 -11 0
-13 -3 -5 -6 6 -2 9 -9 6 -14 -3 -6 -11 -5 -20 2 -12 10 -12 14 3 25 22 16 33
17 33 4z m914 -386 c3 -8 2 -12 -4 -9 -6 3 -10 10 -10 16 0 14 7 11 14 -7z
m-90 -40 c3 -8 2 -12 -4 -9 -6 3 -10 10 -10 16 0 14 7 11 14 -7z m-2180 -165
c-15 -16 -16 -24 -6 -39 7 -12 8 -21 2 -25 -6 -3 -15 5 -21 18 -13 29 3 67 28
67 14 0 14 -3 -3 -21z m-174 -47 c0 -5 -7 -17 -15 -28 -20 -26 -19 -40 2 -23
9 8 14 9 10 3 -3 -6 3 -21 14 -33 16 -17 24 -19 34 -11 9 7 15 8 19 1 8 -13
-24 -30 -44 -23 -8 2 -24 12 -34 21 -16 13 -18 13 -11 1 6 -11 4 -11 -10 2
-23 21 -22 68 1 85 20 15 34 17 34 5z m40 -77 c0 -8 -2 -15 -4 -15 -2 0 -6 7
-10 15 -3 8 -1 15 4 15 6 0 10 -7 10 -15z m45 -46 c4 -6 13 -8 21 -5 8 3 14 2
14 -3 0 -11 63 0 73 13 5 6 6 1 2 -11 -5 -19 18 -68 45 -93 3 -3 5 -11 4 -17
-1 -7 -2 -20 -3 -29 -2 -28 -71 7 -71 36 0 7 -8 10 -19 7 -13 -3 -29 5 -48 26
-15 16 -23 27 -16 24 8 -5 8 -1 0 18 -7 14 -15 25 -19 25 -5 0 -8 5 -8 10 0
13 17 13 25 -1z m-228 -94 c0 -8 -6 -15 -14 -15 -16 0 -17 -22 -1 -38 9 -9 9
-12 -1 -12 -8 0 -10 -7 -6 -22 7 -23 7 -23 -9 -3 -18 24 -21 76 -4 93 17 17
35 15 35 -3z m2898 -87 c39 -6 77 -14 85 -20 11 -6 8 -7 -10 -2 -24 6 -24 5
-6 -8 14 -11 16 -17 6 -23 -7 -4 -16 -2 -22 6 -7 10 -7 8 -3 -8 8 -29 -4 -51
-16 -32 -7 11 -9 11 -9 1 0 -7 7 -15 16 -19 10 -3 12 -8 5 -12 -6 -4 -11 -22
-12 -41 -2 -19 -7 -41 -13 -49 -8 -11 -8 -13 0 -8 13 7 6 -45 -7 -53 -4 -3 -4
-23 1 -45 9 -40 5 -59 -10 -50 -4 3 -10 -5 -13 -17 -4 -13 -1 -26 6 -30 18
-11 -1 -10 -23 2 -18 10 -18 9 -5 -24 11 -27 12 -36 2 -43 -19 -15 -51 -26
-66 -24 -13 2 -13 0 -2 -13 16 -20 0 -22 -29 -4 -16 10 -24 10 -40 0 -25 -15
-31 -15 -24 1 2 7 -3 13 -13 14 -10 1 -30 5 -45 9 -19 4 -28 2 -28 -6 0 -7 7
-10 18 -5 13 5 14 4 5 -6 -10 -10 -15 -9 -27 0 -9 7 -15 16 -14 19 1 4 -1 21
-5 37 -4 17 -9 57 -12 90 -2 33 -11 91 -20 130 -19 87 -19 136 -1 180 29 69
123 85 331 53z m-2679 -14 c10 -8 13 -12 5 -8 -8 4 -22 -3 -35 -17 -11 -13
-28 -25 -36 -27 -8 -1 -2 9 14 22 16 13 25 29 22 35 -10 16 7 13 30 -5z m191
-2 c8 -5 9 -13 3 -22 -5 -9 -5 -20 2 -30 6 -8 -1 -2 -16 13 -14 15 -26 32 -26
38 0 11 20 12 37 1z m-337 -26 c0 -8 -42 -76 -46 -76 -11 0 -2 51 12 64 14 15
34 21 34 12z m2080 -86 c0 -5 -11 -10 -25 -10 -14 0 -25 5 -25 10 0 6 11 10
25 10 14 0 25 -4 25 -10z m-1939 -27 c13 -16 12 -17 -3 -4 -10 7 -18 15 -18
17 0 8 8 3 21 -13z m1989 7 c-19 -13 -30 -13 -30 0 0 6 10 10 23 10 18 0 19
-2 7 -10z m60 -26 c0 -2 -12 -4 -26 -4 -14 0 -23 4 -20 9 6 8 46 4 46 -5z
m-2085 -4 c3 -5 1 -10 -4 -10 -6 0 -11 5 -11 10 0 6 2 10 4 10 3 0 8 -4 11
-10z m2104 -105 c17 -52 34 -120 37 -151 4 -30 13 -61 20 -69 11 -11 10 -14
-6 -18 -11 -3 -18 -2 -15 2 6 11 -30 176 -54 249 -12 34 -21 66 -21 72 0 27
12 2 39 -85z m58 -87 c-3 -8 -6 -5 -6 6 -1 11 2 17 5 13 3 -3 4 -12 1 -19z
m10 -50 c-3 -8 -6 -5 -6 6 -1 11 2 17 5 13 3 -3 4 -12 1 -19z m-2210 -40 c-6
-4 -17 -2 -24 4 -22 18 -15 27 11 15 16 -8 20 -14 13 -19z m15 -30 c-7 -7 -12
-8 -12 -2 0 14 12 26 19 19 2 -3 -1 -11 -7 -17z m2410 -5 c-6 -2 -9 -10 -6
-15 4 -7 2 -8 -4 -4 -18 11 -14 26 6 25 10 0 12 -3 4 -6z m-94 -37 c-13 -19
-25 -33 -27 -31 -2 3 2 11 9 20 7 8 9 15 4 15 -6 0 26 29 34 30 1 0 -8 -15
-20 -34z m-28 4 c0 -5 -4 -10 -10 -10 -5 0 -10 5 -10 10 0 6 5 10 10 10 6 0
10 -4 10 -10z m110 -30 c0 -5 -2 -10 -4 -10 -3 0 -8 5 -11 10 -3 6 -1 10 4 10
6 0 11 -4 11 -10z m-292 -32 c-6 -17 -38 -23 -38 -8 0 6 5 8 10 5 6 -3 10 -1
10 4 0 6 5 11 11 11 6 0 9 -6 7 -12z m65 -5 c-4 -11 -3 -14 5 -9 8 5 10 2 6
-8 -5 -14 -8 -14 -22 0 -13 13 -13 17 -1 25 19 12 19 12 12 -8z m-88 -53 c3
-5 -1 -10 -10 -10 -9 0 -13 5 -10 10 3 6 8 10 10 10 2 0 7 -4 10 -10z"/>
<path d="M2230 4396 c0 -2 7 -7 16 -10 8 -3 12 -2 9 4 -6 10 -25 14 -25 6z"/>
<path d="M2300 4339 c0 -5 5 -7 10 -4 6 3 10 8 10 11 0 2 -4 4 -10 4 -5 0 -10
-5 -10 -11z"/>
<path d="M3766 2228 c-19 -22 -69 -128 -61 -128 3 0 17 24 31 53 14 28 33 60
42 70 8 9 13 19 11 22 -3 2 -13 -5 -23 -17z"/>
<path d="M3292 2090 c0 -14 2 -19 5 -12 2 6 2 18 0 25 -3 6 -5 1 -5 -13z"/>
<path d="M3301 2024 c0 -11 3 -14 6 -6 3 7 2 16 -1 19 -3 4 -6 -2 -5 -13z"/>
<path d="M3402 2010 c0 -19 2 -27 5 -17 2 9 2 25 0 35 -3 9 -5 1 -5 -18z"/>
<path d="M3253 1941 c0 -17 4 -28 8 -25 4 2 10 -2 13 -8 3 -7 3 1 -1 17 -8 42
-20 51 -20 16z"/>
<path d="M3316 1947 c3 -10 9 -15 12 -12 3 3 0 11 -7 18 -10 9 -11 8 -5 -6z"/>
<path d="M3280 1877 c0 -17 41 -86 52 -87 4 0 -5 21 -19 48 -33 58 -33 59 -33
39z"/>
<path d="M3346 1835 c4 -8 10 -15 15 -15 4 0 6 7 3 15 -4 8 -10 15 -15 15 -4
0 -6 -7 -3 -15z"/>
<path d="M3365 1779 c10 -35 23 -45 18 -15 -3 15 -10 29 -15 32 -6 4 -7 -2 -3
-17z"/>
<path d="M3325 1770 c3 -5 11 -10 16 -10 6 0 7 5 4 10 -3 6 -11 10 -16 10 -6
0 -7 -4 -4 -10z"/>
<path d="M3595 750 c-21 -8 -53 -40 -40 -40 12 0 65 34 65 42 0 9 1 9 -25 -2z"/>
<path d="M4575 3939 c-60 -4 -113 -7 -117 -8 -5 0 -8 -33 -8 -71 l0 -71 119 2
119 1 4 27 c2 15 1 49 -2 76 l-5 50 -110 -6z"/>
<path d="M1915 3797 c-4 -8 -2 -29 2 -47 l9 -33 11 36 c9 29 8 39 -3 48 -11 9
-15 8 -19 -4z"/>
<path d="M1948 3678 c-2 -24 -2 -67 0 -96 4 -41 7 -50 17 -42 9 7 11 24 8 48
-3 20 -6 58 -6 85 -1 59 -13 62 -19 5z"/>
<path d="M4963 3523 c15 -4 17 -11 12 -31 -5 -22 -4 -24 8 -13 21 17 10 51
-17 50 -18 -1 -18 -2 -3 -6z"/>
<path d="M1965 3481 c3 -43 19 -71 31 -58 4 4 1 13 -5 21 -7 9 -10 24 -6 37 5
14 3 19 -3 15 -6 -3 -13 2 -16 11 -3 10 -4 -2 -1 -26z"/>
<path d="M4464 3506 c-3 -7 -4 -40 -2 -72 l3 -59 117 0 118 0 0 73 0 72 -115
0 c-88 0 -117 -3 -121 -14z"/>
<path d="M4937 3491 c-2 -10 -1 -25 4 -32 6 -10 9 -4 9 19 0 36 -5 42 -13 13z"/>
<path d="M4968 3453 c6 -2 18 -2 25 0 6 3 1 5 -13 5 -14 0 -19 -2 -12 -5z"/>
<path d="M2050 3429 c0 -5 5 -7 10 -4 6 3 10 8 10 11 0 2 -4 4 -10 4 -5 0 -10
-5 -10 -11z"/>
<path d="M4960 3419 c0 -5 4 -8 9 -5 5 4 11 1 13 -6 3 -8 7 -6 11 5 5 12 1 17
-13 17 -11 0 -20 -5 -20 -11z"/>
<path d="M1980 3394 c0 -8 5 -12 10 -9 6 3 10 10 10 16 0 5 -4 9 -10 9 -5 0
-10 -7 -10 -16z"/>
<path d="M1987 3329 c4 -13 8 -18 11 -10 2 7 -1 18 -6 23 -8 8 -9 4 -5 -13z"/>
<path d="M4832 3238 c3 -43 3 -43 43 -45 l40 -1 -35 7 c-34 6 -34 7 -10 15 14
4 30 7 35 6 14 -2 6 4 -38 35 l-38 25 3 -42z"/>
<path d="M1 3112 c-1 -119 2 -153 12 -149 9 3 11 31 8 108 -6 185 -19 209 -20
41z"/>
<path d="M4950 3225 c0 -13 4 -14 20 -5 11 6 20 13 20 15 0 3 -9 5 -20 5 -11
0 -20 -7 -20 -15z"/>
<path d="M4923 3204 c0 -8 10 -14 25 -14 28 0 27 2 -4 18 -16 9 -21 8 -21 -4z"/>
<path d="M4505 3191 l-40 -6 0 -65 0 -65 116 -3 c88 -2 118 1 121 10 7 21 -3
108 -13 108 -5 0 -9 7 -9 15 0 12 -14 15 -67 14 -38 -1 -86 -5 -108 -8z"/>
<path d="M2102 3149 c-19 -30 -8 -34 12 -4 9 14 13 25 9 25 -5 0 -14 -9 -21
-21z"/>
<path d="M2042 3085 c8 -30 33 -85 38 -85 12 0 29 39 20 45 -6 3 -10 1 -10 -4
0 -21 -17 -10 -33 22 -10 17 -16 28 -15 22z"/>
<path d="M4830 3039 c0 -39 4 -50 21 -59 11 -7 23 -9 27 -6 3 3 0 6 -6 6 -6 0
-16 10 -23 21 -8 17 -8 20 1 14 7 -4 16 -2 20 4 4 7 16 13 28 14 16 1 18 4 10
14 -6 7 -17 13 -24 13 -8 0 -14 4 -14 9 0 5 -9 11 -20 14 -18 5 -20 0 -20 -44z"/>
<path d="M4976 3045 c-3 -9 0 -15 9 -15 9 0 12 6 9 15 -4 8 -7 15 -9 15 -2 0
-5 -7 -9 -15z"/>
<path d="M4875 3000 c-3 -5 -1 -10 4 -10 6 0 11 5 11 10 0 6 -2 10 -4 10 -3 0
-8 -4 -11 -10z"/>
<path d="M4910 3001 c0 -11 36 -18 68 -13 39 7 24 22 -23 22 -25 0 -45 -4 -45
-9z"/>
<path d="M4925 2960 c-4 -6 -11 -8 -16 -5 -5 4 -9 1 -9 -4 0 -17 27 -13 34 4
6 17 0 20 -9 5z"/>
<path d="M4950 2950 c0 -4 7 -7 15 -6 23 3 26 12 5 13 -11 1 -20 -2 -20 -7z"/>
<path d="M4903 2900 c-3 -11 -9 -20 -14 -20 -5 0 -9 -6 -9 -14 0 -21 34 -12
40 10 3 12 16 20 33 22 24 3 27 0 27 -24 0 -34 5 -29 13 14 l7 32 -46 0 c-37
0 -47 -4 -51 -20z"/>
<path d="M4480 2811 l0 -70 115 -3 115 -3 0 73 0 72 -115 0 -115 0 0 -69z"/>
<path d="M4830 2850 c0 -12 59 -80 70 -80 4 0 -5 14 -20 31 -16 16 -27 36 -23
45 3 8 -1 14 -11 14 -9 0 -16 -4 -16 -10z"/>
<path d="M2370 2695 c12 -13 27 -22 31 -19 16 10 9 24 -11 24 -11 0 -20 5 -20
10 0 6 -5 10 -12 10 -6 0 -1 -11 12 -25z"/>
<path d="M4867 2642 l-28 -3 7 -236 7 -236 -171 6 -172 7 0 -70 0 -70 33 -1
c17 0 41 -2 52 -4 11 -1 56 -6 100 -9 99 -9 147 -15 152 -20 3 -2 7 -48 10
-101 l6 -96 -174 3 -174 3 4 -65 c2 -36 8 -68 15 -72 6 -4 29 -8 51 -8 22 0
81 -5 131 -12 78 -10 92 -15 101 -34 8 -17 8 -24 -1 -27 -6 -2 -2 -3 8 -1 32
5 46 -15 46 -64 l0 -45 -97 7 c-54 3 -128 9 -165 12 -36 4 -70 4 -75 1 -4 -3
-6 -36 -3 -73 l5 -69 95 -12 c157 -20 169 -23 163 -42 -4 -14 -3 -14 10 2 8 9
20 17 28 17 11 0 11 -2 -1 -10 -13 -9 -13 -11 0 -20 8 -5 20 -8 26 -6 7 3 15
-7 18 -22 4 -15 13 -247 21 -517 8 -269 18 -550 21 -622 l6 -133 39 0 39 0 0
1314 c0 1242 -1 1314 -17 1322 -20 9 -75 12 -116 6z"/>
<path d="M1787 2243 c-4 -3 -7 -11 -7 -17 0 -6 5 -5 12 2 6 6 9 14 7 17 -3 3
-9 2 -12 -2z"/>
<path d="M1730 2181 c0 -10 26 -9 36 2 4 4 -2 7 -14 7 -12 0 -22 -4 -22 -9z"/>
<path d="M2105 2101 c44 -46 55 -50 55 -20 0 16 5 19 23 15 12 -3 4 3 -18 13
-22 11 -53 23 -70 27 l-30 7 40 -42z"/>
<path d="M1575 2120 c-3 -5 -1 -10 4 -10 6 0 11 5 11 10 0 6 -2 10 -4 10 -3 0
-8 -4 -11 -10z"/>
<path d="M1900 2110 c0 -5 5 -10 11 -10 5 0 7 5 4 10 -3 6 -8 10 -11 10 -2 0
-4 -4 -4 -10z"/>
<path d="M1385 1920 c-3 -5 1 -10 9 -10 9 0 16 5 16 10 0 6 -4 10 -9 10 -6 0
-13 -4 -16 -10z"/>
<path d="M1884 1845 c-18 -14 -18 -14 4 -8 12 3 22 9 22 14 0 12 -3 11 -26 -6z"/>
<path d="M2360 1785 c0 -8 -4 -15 -9 -15 -6 0 -9 -9 -8 -20 1 -12 8 -20 19
-20 15 0 18 7 16 35 -2 34 -18 51 -18 20z"/>
<path d="M2240 1709 c0 -5 5 -7 10 -4 6 3 10 8 10 11 0 2 -4 4 -10 4 -5 0 -10
-5 -10 -11z"/>
<path d="M2334 1695 c25 -19 31 -19 46 0 11 13 7 15 -26 15 -36 -1 -38 -2 -20
-15z"/>
<path d="M2207 1645 c-4 -8 -1 -18 5 -21 7 -4 14 -2 16 4 2 7 10 12 18 12 9 0
12 5 9 10 -9 15 -42 12 -48 -5z"/>
<path d="M1578 1543 c7 -3 16 -2 19 1 4 3 -2 6 -13 5 -11 0 -14 -3 -6 -6z"/>
<path d="M4815 1280 c-4 -6 6 -10 22 -10 22 0 25 2 13 10 -19 12 -27 12 -35 0z"/>
<path d="M970 942 c0 -14 11 -21 26 -15 21 8 17 23 -6 23 -11 0 -20 -4 -20 -8z"/>
<path d="M818 843 c7 -3 16 -2 19 1 4 3 -2 6 -13 5 -11 0 -14 -3 -6 -6z"/>
<path d="M825 570 c-3 -5 -1 -10 4 -10 6 0 11 5 11 10 0 6 -2 10 -4 10 -3 0
-8 -4 -11 -10z"/>
<path d="M615 529 c-4 -6 -5 -12 -2 -15 2 -3 7 2 10 11 7 17 1 20 -8 4z"/>
<path d="M621 484 c0 -11 3 -14 6 -6 3 7 2 16 -1 19 -3 4 -6 -2 -5 -13z"/>
</g>
</svg>
